<svg width="80" height="80" viewBox="0 0 80 80" fill="none" xmlns="http://www.w3.org/2000/svg">
<g clip-path="url(#clip0_179_2543)">
<g filter="url(#filter0_dd_179_2543)">
<path d="M64 0H16C7.16344 0 0 7.16344 0 16V64C0 72.8366 7.16344 80 16 80H64C72.8366 80 80 72.8366 80 64V16C80 7.16344 72.8366 0 64 0Z" fill="url(#paint0_linear_179_2543)"/>
</g>
<g filter="url(#filter1_dd_179_2543)">
<path fill-rule="evenodd" clip-rule="evenodd" d="M39.39 18.5H39.61C42.344 18.5 44.55 18.5 46.284 18.734C48.084 18.974 49.6 19.494 50.804 20.696C52.284 22.176 52.74 24.15 52.904 26.598C53.392 26.6313 53.852 26.6767 54.284 26.734C56.084 26.974 57.6 27.494 58.804 28.696C60.008 29.9 60.524 31.416 60.768 33.216C61 34.95 61 37.156 61 39.89V40.11C61 42.844 61 45.05 60.768 46.784C60.524 48.584 60.008 50.1 58.804 51.304C57.324 52.784 55.35 53.24 52.902 53.404C52.87 53.892 52.8253 54.352 52.768 54.784C52.524 56.584 52.008 58.1 50.804 59.304C49.6 60.508 48.084 61.024 46.284 61.268C44.55 61.5 42.344 61.5 39.61 61.5H39.39C36.656 61.5 34.45 61.5 32.716 61.268C30.916 61.024 29.4 60.508 28.196 59.304C26.992 58.1 26.476 56.584 26.234 54.784C26.1753 54.352 26.13 53.892 26.098 53.404C23.65 53.24 21.678 52.784 20.198 51.304C18.992 50.1 18.476 48.584 18.234 46.784C18 45.05 18 42.844 18 40.11V39.89C18 37.156 18 34.95 18.234 33.216C18.474 31.416 18.994 29.9 20.196 28.696C21.4 27.492 22.916 26.976 24.716 26.734C25.1743 26.6727 25.6346 26.6274 26.096 26.598C26.26 24.15 26.716 22.178 28.196 20.698C29.4 19.492 30.916 18.976 32.716 18.734C34.45 18.5 36.656 18.5 39.39 18.5ZM29.114 26.506C29.8273 26.5007 30.586 26.4987 31.39 26.5H47.61C48.4127 26.5 49.1713 26.502 49.886 26.506C49.722 24.466 49.352 23.49 48.682 22.818C48.128 22.264 47.352 21.904 45.882 21.706C44.372 21.504 42.37 21.5 39.5 21.5C36.63 21.5 34.626 21.504 33.116 21.706C31.648 21.904 30.872 22.266 30.318 22.818C29.648 23.49 29.278 24.464 29.114 26.506ZM26.006 50.386C26.0007 49.6727 25.9987 48.914 26 48.11V47.5H25.5C25.1022 47.5 24.7206 47.342 24.4393 47.0607C24.158 46.7794 24 46.3978 24 46C24 45.6022 24.158 45.2206 24.4393 44.9393C24.7206 44.658 25.1022 44.5 25.5 44.5H53.5C53.8978 44.5 54.2794 44.658 54.5607 44.9393C54.842 45.2206 55 45.6022 55 46C55 46.3978 54.842 46.7794 54.5607 47.0607C54.2794 47.342 53.8978 47.5 53.5 47.5H53V48.11C53 48.9127 52.998 49.6713 52.994 50.386C55.034 50.222 56.012 49.852 56.682 49.182C57.236 48.628 57.596 47.852 57.794 46.382C57.996 44.872 58 42.87 58 40C58 37.13 57.996 35.126 57.794 33.616C57.596 32.148 57.234 31.372 56.682 30.818C56.128 30.264 55.352 29.904 53.882 29.706C52.372 29.504 50.37 29.5 47.5 29.5H31.5C28.63 29.5 26.626 29.504 25.116 29.706C23.648 29.904 22.872 30.266 22.318 30.818C21.764 31.372 21.404 32.148 21.206 33.618C21.004 35.126 21 37.13 21 40C21 42.87 21.004 44.874 21.206 46.384C21.404 47.852 21.766 48.628 22.318 49.182C22.99 49.852 23.964 50.222 26.006 50.386ZM50 47.5H29V48C29 50.87 29.004 52.872 29.206 54.384C29.404 55.852 29.766 56.628 30.318 57.182C30.872 57.736 31.648 58.096 33.118 58.294C34.626 58.496 36.63 58.5 39.5 58.5C42.37 58.5 44.374 58.496 45.884 58.294C47.352 58.096 48.128 57.734 48.682 57.182C49.236 56.628 49.596 55.852 49.794 54.382C49.996 52.872 50 50.87 50 48V47.5ZM26 36C26 35.6022 26.158 35.2206 26.4393 34.9393C26.7206 34.658 27.1022 34.5 27.5 34.5H33.5C33.8978 34.5 34.2794 34.658 34.5607 34.9393C34.842 35.2206 35 35.6022 35 36C35 36.3978 34.842 36.7794 34.5607 37.0607C34.2794 37.342 33.8978 37.5 33.5 37.5H27.5C27.1022 37.5 26.7206 37.342 26.4393 37.0607C26.158 36.7794 26 36.3978 26 36Z" fill="#381E72" stroke="#381E72" stroke-width="0.5"/>
<path d="M52 36C52 36.5304 51.7893 37.0391 51.4142 37.4142C51.0391 37.7893 50.5304 38 50 38C49.4696 38 48.9609 37.7893 48.5858 37.4142C48.2107 37.0391 48 36.5304 48 36C48 35.4696 48.2107 34.9609 48.5858 34.5858C48.9609 34.2107 49.4696 34 50 34C50.5304 34 51.0391 34.2107 51.4142 34.5858C51.7893 34.9609 52 35.4696 52 36Z" fill="#381E72" stroke="#381E72" stroke-width="0.5"/>
</g>
</g>
<defs>
<filter id="filter0_dd_179_2543" x="-1" y="-1" width="82" height="82" filterUnits="userSpaceOnUse" color-interpolation-filters="sRGB">
<feFlood flood-opacity="0" result="BackgroundImageFix"/>
<feColorMatrix in="SourceAlpha" type="matrix" values="0 0 0 0 0 0 0 0 0 0 0 0 0 0 0 0 0 0 127 0" result="hardAlpha"/>
<feOffset dx="-1" dy="-1"/>
<feComposite in2="hardAlpha" operator="out"/>
<feColorMatrix type="matrix" values="0 0 0 0 0 0 0 0 0 0 0 0 0 0 0 0 0 0 0.16 0"/>
<feBlend mode="normal" in2="BackgroundImageFix" result="effect1_dropShadow_179_2543"/>
<feColorMatrix in="SourceAlpha" type="matrix" values="0 0 0 0 0 0 0 0 0 0 0 0 0 0 0 0 0 0 127 0" result="hardAlpha"/>
<feOffset dx="1" dy="1"/>
<feComposite in2="hardAlpha" operator="out"/>
<feColorMatrix type="matrix" values="0 0 0 0 1 0 0 0 0 1 0 0 0 0 1 0 0 0 0.5 0"/>
<feBlend mode="normal" in2="effect1_dropShadow_179_2543" result="effect2_dropShadow_179_2543"/>
<feBlend mode="normal" in="SourceGraphic" in2="effect2_dropShadow_179_2543" result="shape"/>
</filter>
<filter id="filter1_dd_179_2543" x="16.75" y="17.25" width="45.5" height="45.5" filterUnits="userSpaceOnUse" color-interpolation-filters="sRGB">
<feFlood flood-opacity="0" result="BackgroundImageFix"/>
<feColorMatrix in="SourceAlpha" type="matrix" values="0 0 0 0 0 0 0 0 0 0 0 0 0 0 0 0 0 0 127 0" result="hardAlpha"/>
<feOffset dx="-1" dy="-1"/>
<feComposite in2="hardAlpha" operator="out"/>
<feColorMatrix type="matrix" values="0 0 0 0 0 0 0 0 0 0 0 0 0 0 0 0 0 0 0.16 0"/>
<feBlend mode="normal" in2="BackgroundImageFix" result="effect1_dropShadow_179_2543"/>
<feColorMatrix in="SourceAlpha" type="matrix" values="0 0 0 0 0 0 0 0 0 0 0 0 0 0 0 0 0 0 127 0" result="hardAlpha"/>
<feOffset dx="1" dy="1"/>
<feComposite in2="hardAlpha" operator="out"/>
<feColorMatrix type="matrix" values="0 0 0 0 1 0 0 0 0 1 0 0 0 0 1 0 0 0 0.4 0"/>
<feBlend mode="normal" in2="effect1_dropShadow_179_2543" result="effect2_dropShadow_179_2543"/>
<feBlend mode="normal" in="SourceGraphic" in2="effect2_dropShadow_179_2543" result="shape"/>
</filter>
<linearGradient id="paint0_linear_179_2543" x1="0" y1="0" x2="80" y2="80" gradientUnits="userSpaceOnUse">
<stop stop-color="#EADDFF"/>
<stop offset="1" stop-color="#D0BCFE"/>
</linearGradient>
<clipPath id="clip0_179_2543">
<rect width="80" height="80" fill="white"/>
</clipPath>
</defs>
</svg>
